<?xml version="1.0" encoding="utf-8"?>
<!-- Generator: Adobe Illustrator 16.0.0, SVG Export Plug-In . SVG Version: 6.00 Build 0)  -->
<!DOCTYPE svg PUBLIC "-//W3C//DTD SVG 1.1//EN" "http://www.w3.org/Graphics/SVG/1.1/DTD/svg11.dtd">
<svg version="1.1" id="Calque_1" xmlns="http://www.w3.org/2000/svg" xmlns:xlink="http://www.w3.org/1999/xlink" x="0px" y="0px"
	 width="80px" height="16px" viewBox="0 0 80 16" enable-background="new 0 0 80 16" xml:space="preserve">
<path fill="#010101" d="M17.083,1.884c-0.628,0.321-1.305,0.536-2.013,0.633c0.724-0.497,1.28-1.285,1.541-2.224
	c-0.676,0.46-1.427,0.795-2.227,0.975C13.747,0.488,12.835,0,11.828,0C9.564,0,7.902,2.42,8.412,4.935
	C5.501,4.767,2.918,3.167,1.189,0.735C0.271,2.542,0.713,4.905,2.273,6.102C1.7,6.081,1.159,5.9,0.687,5.599
	C0.648,7.461,1.813,9.203,3.498,9.59C3.005,9.744,2.464,9.779,1.914,9.658c0.446,1.598,1.74,2.758,3.275,2.793
	C3.716,13.775,1.859,14.367,0,14.115c1.551,1.141,3.394,1.807,5.373,1.807c6.507,0,10.185-6.303,9.961-11.956
	C16.019,3.398,16.613,2.69,17.083,1.884z"/>
<path fill="#010101" d="M25.498,0.084c-3.7,0-6.701,3.545-6.701,7.917s3.001,7.917,6.701,7.917S32.199,12.372,32.199,8
	S29.198,0.084,25.498,0.084z M25.498,1.403c3.079,0,5.585,2.959,5.585,6.597c0,3.637-2.506,6.597-5.585,6.597
	c-3.08,0-5.584-2.96-5.584-6.597C19.914,4.362,22.418,1.403,25.498,1.403z M28.371,10.969h-5.745c-0.264,0-0.479-0.252-0.479-0.564
	V5.926c0-0.312,0.215-0.565,0.479-0.565h5.745c0.263,0,0.478,0.253,0.478,0.565v4.478C28.849,10.717,28.634,10.969,28.371,10.969z
	 M25.498,8.962l-2.609-2.138l-0.005,3.815h5.217V6.824L25.498,8.962z M27.975,5.692h-4.967l2.491,2.055
	C25.498,7.747,27.244,6.293,27.975,5.692z"/>
<path fill="#010101" d="M46.032-0.042H35.134c-0.902,0-1.634,0.831-1.634,1.856v12.37c0,1.026,0.732,1.857,1.634,1.857h10.899
	c0.903,0,1.634-0.831,1.634-1.857V1.814C47.667,0.79,46.937-0.042,46.032-0.042z M40.583,4.907c1.505,0,2.726,1.384,2.726,3.093
	c0,1.708-1.221,3.094-2.726,3.094c-1.504,0-2.724-1.386-2.724-3.094C37.859,6.292,39.079,4.907,40.583,4.907z M45.896,13.414
	c0,0.341-0.243,0.617-0.545,0.617h-9.534c-0.302,0-0.545-0.276-0.545-0.617V6.66h1.12c-0.052,0.211-0.089,0.429-0.118,0.65
	C36.243,7.536,36.226,7.766,36.226,8c0,2.733,1.951,4.949,4.357,4.949c2.408,0,4.358-2.216,4.358-4.949
	c0-0.234-0.017-0.464-0.047-0.688c-0.028-0.222-0.065-0.44-0.118-0.651h1.119V13.414z M45.896,4.045
	c0,0.341-0.243,0.619-0.545,0.619h-1.283c-0.302,0-0.546-0.277-0.546-0.619V2.587c0-0.341,0.244-0.619,0.546-0.619h1.283
	c0.302,0,0.545,0.277,0.545,0.619V4.045z"/>
<path fill="#010101" d="M63.426,13.954l-3.914-4.261c0.573-0.981,0.904-2.145,0.904-3.392c0.001-3.499-2.616-6.347-5.833-6.347
	S48.75,2.803,48.75,6.302c0,3.501,2.616,6.35,5.833,6.35c1.089,0,2.106-0.328,2.98-0.896l3.94,4.289L63.426,13.954z M50.923,6.302
	c0-2.194,1.642-3.98,3.659-3.98c2.019,0,3.659,1.786,3.659,3.98c0,2.197-1.641,3.982-3.659,3.982
	C52.564,10.284,50.923,8.499,50.923,6.302z"/>
<path fill="#010101" d="M78.68,0.045H64.857C64.384,0.045,64,0.436,64,0.919v14.085c0,0.481,0.384,0.873,0.857,0.873H72.3V9.746
	h-2.025V7.357H72.3V5.595c0-2.045,1.226-3.158,3.016-3.158c0.859,0,1.595,0.064,1.81,0.094v2.137l-1.241,0
	c-0.974,0-1.162,0.472-1.162,1.164v1.525h2.322l-0.302,2.39h-2.021v6.131h3.959c0.474,0,0.857-0.392,0.857-0.874V0.919
	C79.538,0.436,79.154,0.045,78.68,0.045z"/>
</svg>
